<svg width="1342" height="148" viewBox="0 0 1342 148" fill="none" xmlns="http://www.w3.org/2000/svg">
<path d="M30.2902 0.0833648C40.7769 0.0833648 48.4349 3.46394 53.2643 10.2251C58.2317 16.9862 60.7154 25.8171 60.7154 36.7178V47.8943H56.1619V36.5108C56.1619 26.852 54.0922 19.056 49.9527 13.1227C45.9512 7.18947 39.466 4.22284 30.4972 4.22284C21.5283 4.22284 14.9741 7.18947 10.8346 13.1227C6.69515 19.056 4.62541 26.852 4.62541 36.5108V110.607C4.62541 120.266 6.62616 128.062 10.6277 133.996C14.7671 139.791 21.3903 142.688 30.4972 142.688C39.466 142.688 45.9512 139.791 49.9527 133.996C54.0922 128.062 56.1619 120.266 56.1619 110.607V94.6705H60.7154V110.4C60.7154 121.301 58.2317 130.132 53.2643 136.893C48.4349 143.654 40.7769 147.035 30.2902 147.035C19.9415 147.035 12.2834 143.654 7.31607 136.893C2.48668 130.132 0.0719837 121.301 0.0719837 110.4V36.7178C0.0719837 25.8171 2.48668 16.9862 7.31607 10.2251C12.2834 3.46394 19.9415 0.0833648 30.2902 0.0833648ZM99.6507 1.11823H128.42C148.29 1.11823 158.224 11.9499 158.224 33.6131V46.6525C158.224 64.1763 150.566 74.318 135.25 77.0777C150.566 79.4234 158.224 89.0822 158.224 106.054V128.821C158.224 136.686 159.535 142.412 162.157 146H157.189C154.844 142.274 153.671 136.548 153.671 128.821V106.054C153.671 95.9813 150.98 89.0132 145.599 85.1497C140.218 81.1482 132.353 79.1474 122.004 79.1474H104.204V146H99.6507V1.11823ZM104.204 74.801H122.004C132.767 74.801 140.701 72.8692 145.806 69.0057C151.049 65.1422 153.671 57.8981 153.671 47.2734V34.0271C153.671 14.9855 145.185 5.46469 128.213 5.46469H104.204V74.801ZM205.597 70.4545H248.234V74.594H205.597V141.654H256.306V146H201.044V1.11823H256.306V5.46469H205.597V70.4545ZM358.701 111.849H307.165L298.679 146H294.539L329.518 0.911262H335.934L371.741 146H367.187L358.701 111.849ZM332.622 6.29259L307.993 107.71H357.873L332.622 6.29259ZM434.284 146H429.73V5.46469H398.27V1.11823H465.951V5.46469H434.284V146ZM505.936 70.4545H548.572V74.594H505.936V141.654H556.644V146H501.382V1.11823H556.644V5.46469H505.936V70.4545Z" fill="white"/>
<path d="M628.408 146V87.4264L594.671 1.11823H599.224L630.891 81.2172L662.558 1.11823H667.319L632.961 87.4264V146H628.408ZM702.344 110.4V36.7178C702.344 25.8171 704.828 16.9862 709.795 10.2251C714.901 3.46394 722.628 0.0833648 732.976 0.0833648C743.601 0.0833648 751.397 3.46394 756.364 10.2251C761.47 16.9862 764.022 25.8171 764.022 36.7178V110.4C764.022 121.301 761.47 130.132 756.364 136.893C751.397 143.654 743.601 147.035 732.976 147.035C722.628 147.035 714.901 143.654 709.795 136.893C704.828 130.132 702.344 121.301 702.344 110.4ZM706.898 36.5108V110.607C706.898 120.266 708.967 128.062 713.107 133.996C717.246 139.929 723.87 142.895 732.976 142.895C742.083 142.895 748.775 139.929 753.053 133.996C757.33 128.062 759.469 120.266 759.469 110.607V36.5108C759.469 26.852 757.33 19.056 753.053 13.1227C748.775 7.18947 742.083 4.22284 732.976 4.22284C723.87 4.22284 717.246 7.18947 713.107 13.1227C708.967 19.056 706.898 26.852 706.898 36.5108ZM807.482 1.11823V110.4C807.482 120.059 809.483 127.924 813.484 133.996C817.486 139.929 823.971 142.895 832.94 142.895C841.909 142.895 848.394 139.929 852.396 133.996C856.397 127.924 858.398 120.059 858.398 110.4V1.11823H862.744V110.194C862.744 121.094 860.33 129.994 855.5 136.893C850.809 143.654 843.289 147.035 832.94 147.035C822.591 147.035 815.002 143.654 810.173 136.893C805.343 129.994 802.929 121.094 802.929 110.194V1.11823H807.482ZM901.901 1.11823H930.67C950.54 1.11823 960.475 11.9499 960.475 33.6131V46.6525C960.475 64.1763 952.817 74.318 937.501 77.0777C952.817 79.4234 960.475 89.0822 960.475 106.054V128.821C960.475 136.686 961.786 142.412 964.407 146H959.44C957.094 142.274 955.921 136.548 955.921 128.821V106.054C955.921 95.9813 953.231 89.0132 947.849 85.1497C942.468 81.1482 934.603 79.1474 924.254 79.1474H906.455V146H901.901V1.11823ZM906.455 74.801H924.254C935.017 74.801 942.951 72.8692 948.056 69.0057C953.3 65.1422 955.921 57.8981 955.921 47.2734V34.0271C955.921 14.9855 947.435 5.46469 930.463 5.46469H906.455V74.801ZM1033.31 0.0833648C1043.65 0.0833648 1051.24 3.39495 1056.07 10.0181C1060.9 16.6413 1063.32 25.3342 1063.32 36.0968V38.7875H1058.76V35.8899C1058.76 26.507 1056.76 18.918 1052.76 13.1227C1048.76 7.18947 1042.34 4.22284 1033.51 4.22284C1024.54 4.22284 1018.06 7.12048 1014.06 12.9158C1010.06 18.711 1008.05 26.3001 1008.05 35.6829C1008.05 41.4782 1009.43 46.7215 1012.19 51.4129C1014.95 56.1043 1018.33 59.9678 1022.34 63.0034C1026.48 65.9011 1030.96 69.0747 1035.79 72.5242C1040.62 75.9738 1045.03 79.2164 1049.04 82.252C1053.17 85.2876 1056.62 89.3581 1059.38 94.4635C1062.14 99.4309 1063.52 104.95 1063.52 111.021C1063.52 121.922 1061.04 130.684 1056.07 137.307C1051.24 143.792 1043.59 147.035 1033.1 147.035C1022.75 147.035 1015.09 143.792 1010.12 137.307C1005.29 130.684 1002.88 121.922 1002.88 111.021V103.984H1007.23V111.228C1007.23 120.749 1009.3 128.407 1013.44 134.202C1017.58 139.86 1024.13 142.688 1033.1 142.688C1042.07 142.688 1048.62 139.86 1052.76 134.202C1056.9 128.407 1058.97 120.749 1058.97 111.228C1058.97 104.467 1057.04 98.534 1053.17 93.4286C1049.45 88.1853 1044.83 83.7698 1039.31 80.1823C1033.93 76.5947 1028.48 73.0072 1022.96 69.4196C1017.58 65.6941 1012.95 61.0027 1009.09 55.3454C1005.36 49.6881 1003.5 43.2029 1003.5 35.8899C1003.5 24.8512 1005.92 16.1583 1010.75 9.81114C1015.71 3.46394 1023.23 0.221346 1033.31 0.0833648ZM1107.02 70.4545H1149.65V74.594H1107.02V141.654H1157.73V146H1102.46V1.11823H1157.73V5.46469H1107.02V70.4545ZM1249.77 146H1196.58V1.11823H1201.13V141.654H1249.77V146ZM1292.82 73.9731H1333.39V78.3195H1292.82V146H1288.27V1.11823H1341.46V5.46469H1292.82V73.9731Z" fill="#69B99D"/>
</svg>
