<svg width="512" height="512" viewBox="0 0 512 512" fill="none" xmlns="http://www.w3.org/2000/svg">
<path d="M225.5 1.92581C166.9 11.5258 119.4 41.9258 86.6 90.9258C78.9 102.226 69.1 122.426 64.4 136.326L60.6 147.626L54.7 148.726C47.3 150.126 41.1 153.726 36.7 159.226C30 167.626 30 167.326 30 214.326V256.726L27.2 258.526C24.4 260.326 21.4 263.726 19.3 267.326C18.4 268.826 18.1 276.726 18 294.626V319.926H15.7C11.6 319.926 4.5 325.326 2.1 330.126C0 334.526 0 334.826 0 412.026V489.426L2.4 494.526C5.2 500.526 10.4 506.026 16.3 509.126L20.5 511.426H76H131.5L135.7 509.126C141.6 506.026 146.8 500.526 149.6 494.526L152 489.426V432.626V375.726L160.3 380.226C176.5 389.126 195.7 396.026 214.5 399.926C219.9 401.026 224.4 401.926 224.6 401.926C224.8 401.926 225 412.926 225 426.326V450.726L218.3 451.326C191.4 454.026 171 474.926 171 499.726C171 505.426 171.3 506.426 173.9 509.026L176.8 511.926H256H335.2L338.1 509.026C340.6 506.426 341 505.326 341 500.226C341 493.426 338.3 483.126 334.9 477.426C326 462.026 311.7 453.126 293.3 451.426L286 450.726V426.426V402.226L295 400.526C314.2 397.026 338.3 388.226 355.5 378.426C359.8 375.926 363.5 373.926 363.6 373.926C363.8 373.926 364.1 398.326 364.2 428.226L364.5 482.426L367.7 489.126C371.7 497.626 378.3 504.226 386.8 508.226L393.5 511.426H418.5H443.5L450.2 508.226C458.7 504.226 465.3 497.626 469.3 489.126L472.5 482.426L473 418.426L473.5 354.326L490.2 320.426C499.8 300.926 507.8 283.226 509.1 278.926C511.8 269.226 512.8 247.726 511 237.526C509.3 227.726 505.2 216.626 499.9 207.426C492.1 193.626 475.9 178.426 461 170.926C458.5 169.626 456.2 168.226 455.9 167.626C455.5 167.126 454.5 162.826 453.5 158.026C449.5 137.726 438.1 110.326 426 92.0258C417 78.3258 410 69.7258 398.1 57.8258C367.8 27.5258 329.3 8.52581 285 1.82581C268.5 -0.674188 241.1 -0.574188 225.5 1.92581ZM281.2 22.4258C333 30.2258 377.3 58.0258 406.5 100.926C414.5 112.626 425.2 135.126 429.4 149.226C431.4 155.726 433 161.326 433 161.726C433 162.126 426.8 162.426 419.1 162.426H405.3L403.1 155.126C396.6 133.126 381.1 108.026 363.3 90.7258C354 81.7258 339.7 71.5258 327.1 65.1258C302.8 52.6258 282.9 47.8258 255.5 47.8258C233.5 47.9258 216 51.3258 196.1 59.5258C168.7 70.8258 142.8 92.3258 126.3 117.726C123.3 122.226 122.6 124.426 122.5 128.226C122.5 132.326 122.9 133.526 125.3 135.526C128.3 138.126 134.5 138.826 138 136.926C139 136.426 142.4 132.026 145.6 127.226C152.4 116.926 169.6 99.2258 178.9 92.9258C212.7 70.1258 247.1 63.7258 288.8 72.5258L292.2 73.2258L254.7 110.826C234.1 131.526 216.9 149.526 216.5 150.726C214.1 158.726 221.3 166.126 229.2 163.826C231.6 163.126 243.1 152.326 273.1 122.326L313.7 81.7258L318.1 83.9258C323.7 86.8258 338.3 96.8258 343.5 101.526L347.4 105.026L282.3 170.226C237.9 214.726 217 236.326 216.6 238.126C214.8 246.126 224.1 253.526 231.3 249.826C232.5 249.226 262.4 219.926 297.7 184.626L361.8 120.626L367.5 129.226C374 139.226 379.8 151.426 382.9 161.326C384.1 165.126 384.9 168.326 384.8 168.426C384.6 168.626 382 169.926 379 171.426C364.1 178.926 349 192.826 340.6 206.726C330.3 224.026 325.5 245.626 327.8 265.026C329.1 275.926 333.1 289.226 338 298.826L341 304.826L333.2 310.426C311.1 326.326 283.9 334.926 256.1 334.926C232.9 334.926 213.2 330.026 192.3 318.826C179 311.826 175.4 311.326 170.9 315.826C167.1 319.726 166.9 325.426 170.4 329.726C173.5 333.226 193.4 343.626 205.3 347.826C222.8 353.926 232.2 355.326 256 355.326C274.4 355.326 278.9 355.026 287.3 353.126C307.4 348.626 328.1 339.926 343 329.526C346.6 327.026 349.8 325.326 350.1 325.726C350.8 326.426 361 348.526 361 349.326C361 350.426 343.4 360.826 333.5 365.526C292.2 385.026 244.9 388.226 201 374.326C187.8 370.226 170.3 362.126 159.5 355.326L152 350.626V342.526C152 332.226 149.6 326.926 143.2 322.826C140.7 321.226 137.6 319.926 136.3 319.926H134V294.626C133.9 276.726 133.6 268.826 132.7 267.326C130.6 263.726 127.6 260.326 124.8 258.526L122 256.726V222.426V188.226L119 182.126C115 174.126 112.1 171.826 95.7 163.126C88.2 159.026 81.8 155.326 81.5 154.826C80.5 153.326 87.9 132.826 93.6 121.526C120.3 68.0258 170.1 31.8258 229.8 22.5258C242 20.6258 268.7 20.6258 281.2 22.4258ZM80.9 179.226C90.7 184.426 99 189.626 99.9 190.926C101.3 192.926 101.5 198.126 101.8 224.126L102.1 254.926H76H49.9L50.2 215.626C50.5 179.726 50.7 176.126 52.3 173.626C54.5 170.326 57.6 168.826 61 169.426C62.4 169.626 71.3 174.026 80.9 179.226ZM437.3 184.826C468.9 192.926 491 221.126 491 253.226C491 266.626 489 274.026 480.3 292.426C463.4 328.126 456.1 341.926 454 341.926C452.1 341.926 452 341.226 452 320.326C452 298.026 451.7 296.026 447.6 292.726C443.1 289.026 434.9 291.126 432.1 296.626C431.4 298.026 431 306.426 431 320.426V341.926L406 341.726L380.9 341.426L368.9 315.426C353.5 282.026 350.4 274.226 349 264.426C343.8 229.426 367.8 194.126 403 185.026C413.1 182.326 427.3 182.326 437.3 184.826ZM114 297.426V318.926H76H38V297.426V275.926H76H114V297.426ZM132 409.826C132 448.226 131.7 481.026 131.4 482.826C131 484.526 129.6 487.026 128.2 488.426L125.7 490.926H76H26.3L23.8 488.426C22.4 487.026 21 484.526 20.6 482.826C20.3 481.026 20 448.226 20 409.826V339.926H76H132V409.826ZM452 375.926V388.926H418.5H385V375.926V362.926H418.5H452V375.926ZM265 427.426V450.926H255.5H246V427.426V403.926H255.5H265V427.426ZM451.8 444.226L451.5 478.526L448.7 482.726C443.8 490.226 441 490.926 418.2 490.926H398.4L393.8 488.026C390.8 486.126 388.6 483.626 387.1 480.726C385.1 476.426 385 475.026 385 443.126V409.926H418.5H452.1L451.8 444.226ZM300.2 473.926C305.6 475.826 312.9 481.826 315.7 486.626L318.2 490.926H256.1H194L195.9 487.126C199.5 480.026 207 474.826 216.4 472.926C223.3 471.526 295.9 472.326 300.2 473.926Z" fill="#59CCAF"/>
<path d="M195 258.226C193.6 258.926 191.7 261.126 190.7 263.226C188.3 268.026 189.8 273.226 194.4 276.026C201.7 280.526 210 275.926 210 267.426C210 259.426 202.2 254.626 195 258.226Z" fill="#59CCAF"/>
<path d="M437.5 257.826C431 260.626 429.3 269.626 434.3 274.626C436.5 276.826 438 277.426 441.5 277.426C454.1 277.426 455.4 259.026 442.9 257.426C441.1 257.126 438.6 257.326 437.5 257.826Z" fill="#59CCAF"/>
</svg>
