<svg width="513" height="512" viewBox="0 0 513 512" fill="none" xmlns="http://www.w3.org/2000/svg">
<path d="M413.6 1.16826C409.6 2.96826 405.1 7.46826 403.5 11.4683C402.4 13.9683 402.1 21.4683 402.1 43.9683C402.1 77.0683 402.4 78.1683 409.8 84.8683C412.9 87.6683 416 89.0683 423.9 91.3683L434.1 94.2683V127.568C434.1 154.868 434.4 161.468 435.6 164.468C437.6 169.168 437.5 174.668 435.2 186.568C432 203.068 426.3 217.768 418.8 228.768C417.1 231.268 412.4 236.768 408.4 240.968C400.8 248.968 399.1 251.868 399.1 256.868C399.1 262.668 401.7 266.368 411.6 274.668C423.4 284.568 425.9 285.968 432.5 285.968C443.3 285.968 448.3 281.468 454.9 265.868C463.9 244.568 470.2 216.168 472.2 187.368C473.2 173.968 473.7 170.468 475.7 166.368C478 161.468 478.1 160.768 478.1 134.168V106.968L483.9 108.468C487 109.268 491.5 109.768 493.9 109.468C500.1 108.768 507 104.168 509.8 98.8683C511.9 94.7683 512.1 93.2683 512.1 79.2683C512.1 64.7683 512 64.0683 509.8 61.9683C506.7 59.0683 502.1 59.0683 499.3 62.0683C497.3 64.1683 497.1 65.4683 497.1 75.4683C497.1 87.8683 496 92.5683 492.8 93.2683C489.8 93.9683 422.5 74.4683 420 72.2683C418.2 70.4683 418.1 69.2683 418.3 43.8683L418.6 17.3683L421.1 16.0683C423 15.0683 432.3 14.7683 457.9 14.7683H492.2L494.6 17.2683C496.9 19.4683 497.1 20.4683 497.1 28.1683C497.1 36.0683 497.3 36.7683 499.7 38.6683C503.1 41.3683 506.1 41.3683 509.5 38.6683L512.3 36.4683L511.9 24.2683C511.6 13.3683 511.4 11.7683 509.2 8.56826C507.9 6.66826 505.2 3.96826 503.3 2.66826L499.7 0.268257L458.2 0.0682575C425.2 -0.131743 416 0.0682575 413.6 1.16826ZM462.1 130.168C462.1 154.768 461.9 158.368 460.4 159.968C458.4 162.168 454.3 162.268 451.9 160.068C450.2 158.568 450.1 156.268 450.1 128.668V98.9683L456.1 100.568L462.1 102.168V130.168ZM456.6 184.968C454 214.768 448.7 238.868 440.3 258.768C436.1 268.768 435.5 269.768 433 269.768C431.3 269.768 416.1 258.268 416.1 256.968C416.1 256.768 419.1 253.368 422.7 249.568C436.5 234.868 446.4 214.168 450.6 191.268C451.5 186.268 452.4 181.268 452.7 179.968C453 178.568 453.9 177.768 455.2 177.768C457.1 177.768 457.2 178.168 456.6 184.968Z" fill="#59CCAF"/>
<path d="M244.6 167.768C231.2 172.068 209.2 184.968 187.8 201.168C161 221.368 14 339.968 10.7 344.168C8.7 346.468 5.7 351.468 3.9 355.368L0.6 362.268L0.3 425.568L0 488.968L2.4 494.068C5.8 501.568 9.3 505.268 16.3 508.668C22.2 511.668 22.8 511.768 36.1 511.768C48.6 511.768 49.9 511.568 51.6 509.768C54 507.168 54 501.468 51.8 498.968C50.3 497.268 48.3 496.968 38.2 496.568C19.9 495.968 16.2 492.668 15.3 476.368L14.8 467.168L119.2 383.468C216.9 304.968 223.6 299.868 224.5 301.968C229.9 316.068 235.9 322.968 246 326.868C253.7 329.868 266.6 330.568 275.1 328.368C290 324.568 298.3 318.468 325.3 291.868C339.3 278.168 343.2 274.768 343.7 276.168C344.1 277.068 344.2 281.368 343.9 285.568C343.3 295.268 340.3 302.368 333.5 309.468C330.8 312.268 277.4 355.568 214.9 405.668L101.2 496.768H89.2C78.1 496.768 77 496.968 75.1 498.968C72.5 501.768 72.5 506.768 75.1 509.568L77.2 511.768H163.2C258.9 511.768 255.1 511.968 268.4 504.968C275.1 501.468 324.4 462.968 330.9 456.168C334.6 452.268 335 449.168 332 445.368C330.4 443.368 329.1 442.768 326.1 442.768C322.6 442.768 319.8 444.768 293.7 465.768C277.9 478.368 263.2 489.668 261 490.868C250.4 496.268 252 496.068 187.6 496.468L127.6 496.768L130.1 494.668C134.5 490.868 267.6 384.168 268.8 383.468C269.6 382.968 270.4 383.968 271.1 386.668C273.7 396.568 280.3 404.168 290 408.568C298.3 412.368 313.9 412.868 324.1 409.668C335.8 405.968 346.7 398.068 366.3 378.868C376.4 369.068 376.6 369.168 375.9 382.068C375.1 396.068 370.5 403.968 356.3 415.468C346.8 423.268 344.5 426.368 345.7 430.168C346.9 433.968 349.2 435.768 353.2 435.768C356.3 435.768 358.3 434.668 364.8 429.568C369.1 426.168 374.7 421.168 377.3 418.568C382.8 412.868 389.4 400.268 391.1 392.068C392.7 384.668 391.8 367.568 389.7 362.568C388.8 360.468 388.1 358.368 388.1 357.868C388.1 357.368 391.2 353.368 394.9 349.068C412.2 329.068 421.1 312.368 421.1 300.068C421.1 285.368 410.7 277.068 395.4 279.768C387.1 281.168 377.8 284.668 367.6 290.168L359.6 294.468V282.368C359.5 272.568 359.1 269.268 357.4 265.068L355.4 259.968L361.2 251.768C373.2 234.968 378.4 221.068 376.2 211.268C373.7 199.968 368.1 195.768 355.7 195.768C338.3 195.768 311.8 209.668 274.6 238.268C267.1 244.068 260.8 248.768 260.5 248.768C260.3 248.768 260.1 246.868 260.1 244.468C260.1 242.168 259.4 237.568 258.6 234.368L257.1 228.668L263.1 220.268C275.4 203.368 280.4 190.068 278.2 180.368C276.8 174.268 272.9 168.968 268.5 167.168C263.8 165.168 251.8 165.468 244.6 167.768ZM262.4 183.168C262.8 183.768 262.9 185.868 262.5 187.668C260.5 199.268 243.8 221.068 216.5 247.768C191.7 272.068 185.8 275.868 172.1 276.468C164.7 276.868 163 276.568 159.1 274.568C153.4 271.668 150.1 265.868 149.4 257.968L148.9 252.268L162.2 241.768C193.4 216.968 201.3 211.068 213.6 202.868C239.6 185.568 258.7 177.868 262.4 183.168ZM359.1 211.768C359.6 211.768 360.3 213.268 360.6 215.068C362.4 224.468 347.8 245.768 320.1 274.168C292.1 302.868 279.1 312.368 266.2 313.468C250.6 314.868 241.2 307.668 239.5 292.668L238.9 287.268L260.3 270.168C288 248.068 295 242.768 310.1 232.768C329.7 219.768 351.5 209.768 356.9 211.368C357.7 211.568 358.7 211.768 359.1 211.768ZM243.8 249.768C243 256.568 239.8 263.568 234.9 268.968C233.1 270.968 182.9 311.568 123.3 359.268L14.9 445.968L15.3 407.568C15.8 365.868 15.9 365.068 21.9 356.268C23.6 353.868 46.1 335.168 79.1 308.668L133.6 264.968L135.6 270.668C139.2 280.468 143.4 285.168 152.2 289.168C162.6 293.968 177.5 294.268 188.8 289.968C198.5 286.268 212.5 275.168 231.6 255.868C238.2 249.268 243.8 243.768 244 243.768C244.2 243.768 244.1 246.468 243.8 249.768ZM404.9 300.068C405.4 305.668 400.8 314.768 390.8 327.968C376.8 346.668 343.5 379.968 329.6 389.268C317.3 397.468 299.4 398.068 291.4 390.568C288.5 387.868 285.1 378.868 285.1 373.868C285.1 370.168 285.4 369.868 308.4 351.668C336.4 329.268 341 325.768 352.6 318.168C376.7 302.168 396 293.568 402.6 295.768C404 296.268 404.7 297.568 404.9 300.068Z" fill="#59CCAF"/>
</svg>
