<svg width="512" height="512" viewBox="0 0 512 512" fill="none" xmlns="http://www.w3.org/2000/svg">
<path d="M298.909 1.34997C294.809 2.04997 287.909 3.54997 283.509 4.74997C276.109 6.84997 27.7092 101.35 21.9092 104.35C17.5092 106.65 8.30917 115.55 5.60917 120.15C-0.590826 130.75 -1.79083 147.05 2.70917 158.85C9.00917 174.95 29.2092 185.85 45.6092 181.95C48.2092 181.25 101.709 163.25 164.309 141.95C239.709 116.25 279.209 102.35 281.209 100.75C287.209 95.85 284.409 85.45 276.609 83.45C273.309 82.55 262.709 86.05 158.209 121.65C95.1092 143.15 42.2092 161.05 40.8092 161.35C37.4092 162.15 30.9092 160.45 27.5092 157.75C23.5092 154.65 20.9092 148.65 20.9092 142.85C20.9092 132.55 26.1092 125.65 37.3092 120.95C59.6092 111.75 284.709 26.35 292.309 24.25C304.709 20.75 326.409 19.85 339.209 22.25C363.609 26.85 385.209 38.65 401.809 56.35C405.809 60.75 417.909 77.35 431.009 96.55C443.209 114.65 454.809 131.45 456.609 134.05L460.009 138.75L456.909 137.75C452.609 136.25 447.409 137.45 444.909 140.55C442.109 144.15 442.209 150.95 445.209 154.15C447.309 156.55 492.209 188.35 496.609 190.65C500.309 192.65 505.509 192.05 508.809 189.25C511.309 187.15 511.909 185.95 511.909 182.65C511.909 180.55 511.409 177.75 510.809 176.55C508.409 172.15 431.309 59.05 425.309 51.25C404.809 24.75 374.409 6.74997 340.909 1.34997C329.609 -0.450025 309.409 -0.450025 298.909 1.34997Z" fill="#59CCAF"/>
<path d="M348.809 55.3498C347.409 56.0498 345.809 57.7498 345.209 59.0498C344.609 60.3498 341.709 85.3498 338.809 114.55C333.609 167.35 333.509 167.65 331.509 166.25C326.709 162.95 317.809 165.75 315.909 171.15C315.409 172.75 315.209 177.25 315.509 181.15C317.309 204.65 302.309 230.95 280.909 241.85C276.809 243.95 265.209 247.85 263.109 247.85C262.309 247.85 264.709 244.65 268.409 240.75C284.609 223.55 291.909 205.25 291.909 181.75C291.909 165.75 289.809 161.85 281.009 161.85C278.209 161.85 276.209 162.55 274.209 164.25C271.409 166.65 271.409 166.85 270.809 181.55C270.309 194.15 269.809 197.35 267.609 202.95C261.909 217.75 250.809 230.65 237.709 237.85C232.609 240.65 231.709 240.85 232.909 239.15C244.009 223.75 247.809 216.55 250.809 204.65C255.609 186.05 253.909 161.75 247.409 155.25C242.409 150.35 231.909 153.05 230.409 159.65C230.109 161.15 230.609 166.65 231.509 171.85C235.309 193.85 227.609 216.05 211.109 230.85C203.609 237.55 189.409 244.55 181.409 245.35C144.809 249.25 108.909 266.85 80.0093 295.15L71.7093 303.35L74.7093 297.25C80.3093 286.15 92.0093 269.75 101.409 259.95C124.709 235.75 151.409 223.65 186.909 221.25C199.209 220.45 202.309 219.25 203.909 214.35C206.209 207.45 202.709 201.65 195.409 200.25C190.909 199.45 170.509 201.45 159.209 203.85C105.509 215.15 63.0093 257.85 40.6093 322.95C36.0093 336.15 31.0093 356.35 30.2093 364.45C29.7093 370.15 29.8093 370.75 32.6093 373.85C35.0093 376.55 36.3093 377.15 39.5093 377.15C45.4093 377.15 47.3093 375.65 51.7093 367.65C72.8093 329.45 102.509 298.15 133.409 281.75L141.409 277.45L138.209 281.55C136.409 283.75 133.109 289.05 131.009 293.35C113.609 327.35 119.409 367.45 145.709 395.05C152.209 401.85 152.909 402.85 150.809 402.85C146.709 402.75 127.809 400.05 116.609 397.95C101.609 395.05 98.4093 395.15 94.8093 398.75C89.4093 404.25 91.7093 413.35 99.2093 415.75C103.909 417.15 121.609 420.55 135.409 422.55C153.009 425.15 201.909 425.05 217.409 422.55C265.009 414.65 301.609 396.25 333.409 364.45C346.309 351.45 357.609 337.15 366.109 322.85C369.009 317.85 371.609 313.85 371.909 313.85C372.309 313.85 381.209 346.35 391.809 386.05C402.509 425.85 411.809 460.45 412.609 463.05C414.209 468.75 417.809 471.85 422.809 471.85C429.209 471.85 433.409 467.25 433.009 460.85C432.909 458.95 416.409 396.15 396.409 321.25C376.309 246.45 359.909 184.75 359.909 184.25C359.909 183.65 362.509 183.45 366.209 183.65C379.209 184.45 392.809 180.95 403.709 173.85C408.909 170.55 409.909 170.25 410.309 171.65C410.609 172.55 429.109 241.45 451.409 324.75C473.709 407.95 492.409 476.95 492.909 477.95C495.509 482.65 501.509 484.15 506.909 481.35C510.509 479.45 511.909 477.05 511.909 472.45C511.909 468.75 426.909 149.65 424.509 144.35C422.709 140.25 364.409 59.0498 361.209 56.0498C358.409 53.4498 352.809 53.1498 348.809 55.3498ZM400.909 147.75C400.909 148.25 398.909 150.45 396.509 152.55C387.309 160.65 375.709 164.05 364.209 162.15C360.609 161.45 357.209 160.55 356.609 159.95C355.909 159.25 356.609 148.75 358.809 127.15C360.509 109.65 361.909 94.7498 361.909 93.9498C361.909 93.2498 370.709 104.75 381.409 119.75C392.109 134.65 400.909 147.25 400.909 147.75ZM345.809 214.25C350.209 230.75 353.709 244.35 353.609 244.45C353.109 244.85 322.809 248.85 315.009 249.45L306.709 250.05L313.109 243.45C325.909 230.25 334.009 212.75 336.109 193.35C336.809 187.45 337.409 183.05 337.609 183.45C337.709 183.95 341.409 197.85 345.809 214.25ZM361.609 273.05L363.809 281.35L357.509 294.35C342.409 325.35 320.109 351.95 294.209 370.15C288.709 374.05 287.909 373.75 290.409 368.75C293.209 363.45 295.809 353.45 297.109 343.65C300.009 320.35 291.609 293.45 276.009 275.75L272.009 271.15L298.209 270.55C321.809 270.05 340.009 268.55 352.909 265.95C355.409 265.45 357.909 265.05 358.409 264.95C359.009 264.85 360.409 268.55 361.609 273.05ZM230.709 270.15C241.209 273.85 248.309 278.25 257.009 286.85C263.109 292.95 265.509 296.25 269.309 303.85C279.309 324.15 279.309 343.25 269.309 363.75C255.409 392.05 223.309 406.75 192.509 398.85C167.609 392.55 148.209 371.75 143.309 346.15C141.509 336.55 141.509 330.65 143.409 321.05C148.409 296.15 167.609 275.85 192.909 268.75C202.609 266.05 220.709 266.75 230.709 270.15Z" fill="#59CCAF"/>
<path d="M199.109 294.45C180.709 299.35 168.809 314.75 168.809 333.45C168.809 345.55 171.609 352.95 179.409 361.55C195.109 379.05 223.709 379.15 239.409 361.65C247.209 352.95 250.109 345.45 250.009 333.75C250.009 313.75 236.609 297.55 216.909 293.85C210.009 292.55 205.609 292.65 199.109 294.45ZM220.409 317.65C226.709 322.05 229.009 327.05 228.709 335.05C228.409 340.75 227.909 342.35 225.309 345.55C215.709 357.55 198.709 356.05 191.709 342.55C186.409 332.15 192.309 318.45 203.609 314.85C208.409 313.25 216.009 314.55 220.409 317.65Z" fill="#59CCAF"/>
<path d="M306.709 72.15C298.709 79.55 306.009 92.65 316.409 89.75C324.009 87.55 326.209 78.05 320.409 72.25C317.109 68.95 310.209 68.85 306.709 72.15Z" fill="#59CCAF"/>
<path d="M429.209 492.25C425.309 494.05 423.609 497.05 423.609 502.25C423.609 510.95 434.709 515.25 441.009 508.95C445.009 504.95 445.109 498.35 441.309 494.45C439.809 493.05 438.109 491.85 437.509 491.85C436.909 491.85 435.509 491.65 434.409 491.35C433.309 491.05 431.009 491.55 429.209 492.25Z" fill="#59CCAF"/>
</svg>
